<svg width="1058" height="171" viewBox="0 0 1058 171" fill="none" xmlns="http://www.w3.org/2000/svg">
<path d="M45.4 2.33336C18.4667 9.66669 -4.60001 35.9334 0.999993 52.8667C2.46666 57.4 8.59999 61.6667 13.6667 61.6667C23 61.6667 35.5333 52.8667 41.9333 42.0667C44.6 37.5334 45.5333 33.6667 46.0667 26.0667C46.6 16.8667 46.4667 16.0667 44.2 16.6C42.6 16.8667 40.7333 20.0667 38.4667 26.4667C33.9333 38.6 27.1333 50.2 22.3333 53.6667C12.6 60.6 4.06666 57.1334 5.26666 46.4667C6.19999 38.0667 10.0667 31.1334 18.7333 22.7334C29.1333 12.4667 41.2667 6.60002 53 5.93336C59.9333 5.53336 62.3333 5.80002 64.0667 7.66669C68.3333 11.9334 66.8667 16.8667 56.2 32.4667C44.3333 49.9334 42.3333 54.2 42.3333 62.3334C42.3333 69.9334 43.9333 73 49 75.6667C57.5333 80.0667 65.6667 77.2667 78.7333 65.6667C86.2 59 88.3333 58.2 84.3333 63.8C83.2667 65.4 78.7333 73.5334 74.2 81.8C64.2 100.6 60.8667 105 53.4 109.667C43 116.2 28.7333 115.933 22.6 109C18.6 104.2 20.4667 100.6 27.9333 99.5334C34.6 98.3334 38.3333 95 38.3333 89.8C38.3333 84.0667 33 80.3334 24.8667 80.3334C19.5333 80.3334 17.5333 81 13.6667 84.4667C2.46666 94.3334 6.06666 109.267 21.1333 115.533C29 118.867 41.8 119.533 52.6 117.267C78.6 111.667 95.5333 95.5334 106.333 66.3334C120.2 28.7334 123.8 21 133 10.7334C141.667 0.866689 139.4 -1.53331 128.867 6.33336C125.4 8.73336 116.467 18.2 108.867 27.2667C92.4667 46.7334 74.6 65 66.6 70.3334C61.6667 73.5334 60.6 73.8 59 72.2C56.6 69.9334 57 69.1334 69.2667 51.4C79.9333 35.8 82.3333 30.4667 82.3333 22.3334C82.3333 4.86669 66.8667 -3.39998 45.4 2.33336Z" fill="white"/>
<path d="M472.333 6.73335C464.867 10.3333 454.2 22.0667 440.333 42.3334C433 53 424.2 63.8 417.4 70.4667C411.267 76.3334 406.333 81.9334 406.333 82.7334C406.333 85 409.667 84.7334 411.667 82.3334C412.6 81.1334 415.133 79 417.267 77.5334L421 74.7334L417.267 81.2667C415.133 84.7334 412.067 89.8 410.467 92.4667C408.467 95.8 406.333 97.6667 403.667 98.2C398.6 99.1334 395.667 104.6 398.067 108.467C399.4 110.6 397.4 114.867 382.467 140.6C373 157 365.533 170.467 365.667 170.733C365.933 171 370.733 170.733 376.6 170.333L387 169.267L401.133 144.467L415.267 119.667L423.133 118.867C433.8 117.8 441.133 114.2 452.733 104.467L462.333 96.3334V102.467C462.333 119.133 485.267 124.333 499.267 110.733L503.667 106.467L505.133 110.733C507.133 116.333 513 119.533 519.4 118.333C526.867 117 532.867 113.4 544.733 103.133L555.667 93.6667V99.1334C555.667 112.333 565.267 120.067 579.4 118.467C589.267 117.267 595.933 114.2 606.2 105.933C610.867 102.067 615.267 99 615.933 99C616.467 99 617 100.2 617 101.8C617 107 621.533 112.333 628.733 115.933C638.6 120.733 649.533 119.8 663.667 112.867C672.2 108.6 676.333 105.133 693.267 87.9334C704.067 76.8667 712.733 67.5334 712.333 67.2667C710.467 65.4 702.333 71.5334 689.933 84.4667C670.333 104.6 653.933 114.6 642.067 113.4C638.2 113 637.667 112.467 637.267 108.6C636.6 101.933 639.667 98.4667 647.8 96.6C656.333 94.6 669.667 87.9334 674.6 83.2667C678.867 79.4 680.6 72.2 678.6 67.8C677.933 66.0667 675 63.6667 672.2 62.3334C661 57 640.6 64.6 627 79.1334C601.933 105.8 587.4 115.933 578.333 113C574.333 111.667 575 106.067 580.333 95.5334C588.733 78.7334 601.267 64.4667 605.667 66.2C607.4 66.8667 607.267 67.4 605 69.6667C601.267 73.4 601.533 78.7334 605.667 80.6C612.867 83.9334 620.2 76.2 617.133 68.6C614.867 63.2667 609.933 61 600.467 61C586.733 61 575.4 67.4 556.2 85.9334C541 100.467 529.533 109.667 526.467 109.667C523.667 109.667 525.133 105.667 535.667 83.5334C541.533 71.2667 546.333 61.1334 546.333 60.8667C546.333 60.0667 536.733 60.3334 531.267 61.2667C527.667 61.8 525.667 63 524.733 65.1334L523.4 68.0667L520.333 64.6C517.533 61.4 516.333 61 508.733 61C494.467 61.1334 485.933 66.0667 463.533 87.6667C449.267 101.533 442.733 106.867 436.467 109.8C429.4 113.133 419.667 115 419.667 113C419.667 112.6 424.867 103.267 431.133 92.2C442.333 72.7334 443 71.9334 451.533 66.4667C471.933 53.4 486.733 39.2667 492.867 27.4C496.067 21 496.6 11.4 493.8 7.66668C491.133 4.06668 479.267 3.53335 472.333 6.73335ZM483.8 11.8C486.467 15 483.4 27.1334 477.8 35.6667C470.733 46.2 447.933 65.5334 444.733 63.5334C443.267 62.6 459.667 31.2667 467.133 20.7333C475 9.66668 479.8 7.00002 483.8 11.8ZM518.6 69C522.2 76.8667 498.067 111.8 487.267 114.467C481 115.933 478.867 112.733 480.867 104.867C483 96.3334 492.2 81.1334 500.467 72.6C506.2 66.7334 507.933 65.6667 512.067 65.6667C516.067 65.6667 517.4 66.3334 518.6 69ZM667 68.4667C668.2 72.0667 666.867 77.2667 663.4 82.0667C659.933 87 649.533 93.6667 645.267 93.6667C642.6 93.6667 642.333 93.1334 643.133 90.6C644.6 86.0667 652.067 74.8667 656.867 69.9334C661.8 65 665.8 64.4667 667 68.4667Z" fill="white"/>
<path d="M968.6 9.26667C965.267 9.66667 963 10.8667 961.8 12.7333C959.267 16.7333 949 35.6667 941 51C931.667 69 932.467 68.2 928.333 64.3333C925.267 61.4 923.533 61 915.8 61.1333C901.667 61.2667 891.933 66.4667 874.467 83.5333C861.533 96.0667 852.467 102.867 850.733 101.133C850.333 100.867 852.2 97.6667 854.867 94.3333C860.067 87.4 861.667 81.5333 860.6 73.5333C859.667 66.7333 856.733 63.4 849.8 61.5333C842.467 59.5333 833 61 822.733 65.6667C815.667 68.8667 811.133 72.6 796.6 87.2667C783.667 100.333 776.733 106.2 770.6 109.4C757.133 116.6 750.6 113.8 754.733 102.867C760.067 89 775 68.2 781.133 66.3333C785.267 65 785.8 66.6 782.333 70.2C778.467 74.4667 779.533 79.9333 784.6 81.1333C791.133 82.8667 797.267 75.5333 795 68.7333C790.6 56.2 766.867 58.4667 748.067 73.4C731.533 86.6 728.467 106.067 741.4 115.533C744.333 117.667 747.133 118.333 754.067 118.333C765.133 118.333 774.2 114.333 785.8 104.6C790.333 100.733 794.467 97.6667 794.867 97.6667C795.267 97.6667 795.667 99.2667 795.667 101.133C795.667 112.067 806.2 120.067 818.733 118.467C822.6 118.067 829.267 115.933 833.667 113.8C838.067 111.667 843.8 109.533 846.467 109.133C849.133 108.6 855 105.933 859.533 103C864.067 100.067 867.933 97.6667 868.2 97.6667C868.467 97.6667 869 100.467 869.4 103.933C870.2 111.4 874.067 115.4 882.467 117.667C891.133 120.067 900.467 117 908.467 109.4L912.6 105.533L913.4 109.533C915.267 118.467 928.867 121.133 939.933 114.6C943.4 112.6 949.4 107.933 953.533 104.2C957.667 100.467 961 97.6667 961.133 97.8C961.133 98.0667 961.4 99.8 961.8 101.533C965 119.133 989.8 124.067 1012.33 111.533C1018.73 107.933 1059.13 68.7333 1057.8 67.4C1055.8 65.4 1049.27 70.3333 1036.33 83.6667C1016.07 104.467 999.4 114.6 987.4 113.4C983.533 113 983 112.467 982.6 109C982.067 101.667 984.733 99 995.8 95.8C1013.93 90.6 1025 81.8 1025 72.8667C1025 64.3333 1016.07 59.1333 1004.47 60.8667C992.467 62.7333 983.267 68.6 964.067 87.1333C938.867 111.133 932.733 115.4 930.867 110.333C930.067 108.467 944.733 81.1333 973.133 30.8667C979.667 19.4 985 9.66667 985 9.13334C985 8.33334 977.667 8.33334 968.6 9.26667ZM926.733 68.6C928.867 76.7333 913.4 102.2 901.133 110.867C895.267 115 892.067 115.4 889.133 112.467C886.6 109.933 886.6 109.4 888.2 103.8C891.4 93.4 910.067 69.4 917.4 66.3333C922.333 64.2 925.933 65.1333 926.733 68.6ZM850.467 68.4667C854.067 75.2667 843.133 97.4 835.133 99.8C832.067 100.733 830.6 102.2 829.533 105.533C828.467 108.733 826.6 110.867 823.667 112.2C819.8 114.067 819.267 114.067 817.667 111.933C815.4 108.733 816.867 102.467 822.333 92.7333C830.2 78.7333 842.2 65.6667 847.267 65.6667C848.2 65.6667 849.533 66.8667 850.467 68.4667ZM1012.47 68.8667C1014.2 76.2 1008.87 84.6 998.333 90.8667C994.067 93.4 987.667 94.7333 987.667 93C987.667 90.2 995.533 77.5333 1000.6 72.2C1007.4 65 1011.13 63.9333 1012.47 68.8667Z" fill="white"/>
<path d="M307 57.9334C306.6 58.8667 305.533 62.0667 304.6 65C303.4 69.1334 298.6 74.6 283.667 89.1334C264.333 107.933 256.6 113.8 254.067 111.267C252.6 109.8 254.6 105.4 269.267 79.9334C275.133 69.6667 279.667 61.2667 279.4 61C279.133 60.7334 273.4 61 266.467 61.4L253.933 62.3334L246.733 74.3334C233.667 95.8 217.533 113.133 213.133 110.333C209.4 108.067 211.267 103.8 231.667 67.8L236.2 59.9334L230.867 60.7334C228.067 61.2667 222.2 61.6667 217.8 61.6667H209.933L191.8 79.5334C175.133 95.9334 165.933 103 163.933 101.133C163.533 100.733 164.467 99 165.933 97.2667C171.933 90.8667 174.333 85.1334 174.333 77.5334C174.333 72.0667 173.667 69.1334 171.667 66.6C162.867 55.4 137.533 60.3334 121.267 76.6C112.333 85.4 109 91.8 109 99.6667C109 108.2 111.8 112.867 119.133 116.333C127 120.2 135.933 119.4 146.867 113.667C151.133 111.533 155.933 109.667 157.533 109.667C163.8 109.667 174.467 102.867 186.867 91.1334C193.8 84.4667 199.8 79 200.2 79C200.6 79 198.067 84.7334 194.733 91.6667C189.533 102.6 188.733 105 189.8 108.6C193.667 121.8 212.867 121 227.8 106.867C230.867 104.067 233.4 101.667 233.667 101.667C233.8 101.667 233.933 103.8 233.933 106.467C233.933 117 248.467 121.933 261.267 115.533C263.133 114.467 274.467 104.467 286.467 93C308.067 72.4667 308.2 72.3334 314.333 72.3334H320.467L313 79.9334C295.933 97.6667 295.267 113.667 311.533 117.667C324.333 120.733 328.6 117.933 360.6 86.8667C374.067 73.9334 379 68.3334 377.133 68.3334C373.8 68.3334 369 72.2 350.6 90.2C335.667 104.867 326.2 112.333 322.733 112.333C319.133 112.333 321.267 105.933 328.2 96.0667C345.267 72.0667 344.333 69.2667 318.067 65C313.933 64.3334 313.133 63.6667 312.733 60.6C312.333 56.7334 308.2 54.8667 307 57.9334ZM163.4 67.2667C165.667 69.5334 165.4 73.9334 162.333 81.9334C159.133 90.6 153.933 97 147.667 100.067C144.333 101.667 142.867 103.4 142.6 106.067C142.333 108.467 140.867 110.333 138.067 111.8C127.267 117.4 127.533 105.267 138.733 87.6667C149.667 70.2 158.733 62.6 163.4 67.2667Z" fill="white"/>
</svg>
